<svg enable-background="new 0 0 286 60" height="60.000999" viewBox="0 0 285.30667 60.000999" width="285.30667" xmlns="http://www.w3.org/2000/svg"><g fill="#204156" transform="translate(-.665)"><path d="m12.237 41.354c-.514-1.559-.769-3.527-.769-6.173 0-2.647.255-4.619.769-6.174 1.436-4.462 5.24-6.9 10.221-6.9 3.699 0 6.628 1.505 8.582 3.892.151.206.202.517-.052.724l-3.235 2.854c-.258.209-.514.157-.721-.102-1.234-1.4-2.518-2.18-4.573-2.18-2.208 0-3.902 1.09-4.623 3.269-.408 1.248-.513 2.699-.513 4.618s.104 3.423.513 4.669c.72 2.125 2.415 3.215 4.623 3.215 2.055 0 3.339-.779 4.573-2.176.207-.263.463-.263.721-.055l3.235 2.854c.254.207.203.467.052.727-1.953 2.336-4.882 3.839-8.582 3.839-4.981-.002-8.785-2.442-10.221-6.901"/><path d="m124.477 41.354c-.514-1.559-.769-3.527-.769-6.173 0-2.647.255-4.619.769-6.174 1.439-4.462 5.239-6.9 10.22-6.9 3.7 0 6.63 1.505 8.581 3.892.153.206.206.517-.053.724l-3.236 2.854c-.257.209-.512.157-.718-.102-1.232-1.4-2.517-2.18-4.574-2.18-2.207 0-3.903 1.09-4.621 3.269-.412 1.248-.512 2.699-.512 4.618s.1 3.423.512 4.669c.718 2.125 2.414 3.215 4.621 3.215 2.057 0 3.342-.779 4.574-2.176.206-.263.462-.263.718-.055l3.236 2.854c.259.207.206.467.053.727-1.951 2.336-4.881 3.839-8.581 3.839-4.981-.002-8.781-2.442-10.22-6.901"/><path d="m254.202 47.684c-.308 0-.513-.206-.513-.52v-14.421c0-3.217-1.594-5.449-4.677-5.449-2.979 0-4.725 2.231-4.725 5.449v14.421c0 .313-.207.52-.513.52h-4.728c-.308 0-.515-.206-.515-.52v-14.421c0-3.217-1.592-5.449-4.67-5.449-2.981 0-4.729 2.231-4.729 5.449v14.421c0 .313-.205.52-.514.52h-4.726c-.31 0-.513-.206-.513-.52v-23.968c0-.312.203-.52.513-.52h4.726c.309 0 .514.208.514.52v1.816h.052c1.08-1.557 3.236-2.905 6.523-2.905 2.929 0 5.292 1.191 6.779 3.319h.053c1.9-2.073 4.367-3.319 7.912-3.319 5.751 0 8.99 3.942 8.99 9.286v15.77c0 .314-.207.521-.516.521z"/><path d="m266.578 57.021c-.307 0-.512-.208-.512-.521v-4.149c0-.31.205-.521.512-.521h.926c1.951 0 2.93-.878 3.699-2.955l.72-2.127-9.042-23.553c-.104-.312.103-.52.413-.52h5.084c.308 0 .514.208.614.52l5.602 16.342h.101l5.344-16.342c.103-.312.309-.52.614-.52h4.879c.311 0 .517.208.412.52l-9.45 26.043c-2.156 5.915-4.214 7.781-8.322 7.781z"/><path d="m35.766 41.356c-.565-1.767-.822-3.426-.822-6.175 0-2.745.257-4.406.822-6.166 1.387-4.358 5.185-6.901 10.218-6.901 4.98 0 8.78 2.542 10.167 6.901.562 1.76.821 3.421.821 6.166 0 2.749-.259 4.408-.821 6.175-1.388 4.355-5.187 6.896-10.167 6.896-5.033.001-8.831-2.54-10.218-6.896m14.839-1.556c.412-1.295.514-2.49.514-4.618 0-2.122-.102-3.265-.514-4.612-.718-2.073-2.311-3.269-4.621-3.269-2.309 0-3.955 1.196-4.672 3.269-.409 1.348-.513 2.49-.513 4.612 0 2.128.104 3.323.513 4.618.717 2.077 2.364 3.266 4.672 3.266 2.31-.001 3.903-1.19 4.621-3.266"/><path d="m157.043 22.107c-4.059 0-6.78.985-8.785 2.438-.203.158-.256.414-.1.673l1.896 3.426c.159.26.463.312.722.104 1.182-.932 2.875-1.713 5.651-1.713 4.047 0 5.421 1.228 5.491 3.927h.001v.033c.002.063.002.127.002.194v8.094c0 2.853-1.951 4.251-5.494 4.251-2.776 0-4.264-1.035-4.264-3.109 0-2.336 1.645-3.376 5.342-3.376l1.124.002c.308 0 .515-.208.515-.517v-3.326c0-.31-.207-.517-.515-.517h-.247l-1.801-.001c-6.112 0-9.917 2.494-9.917 7.938 0 5.241 3.805 7.626 8.323 7.626 3.49 0 5.803-1.192 6.985-2.904h.05v1.816c0 .312.208.52.515.52h4.314c.309 0 .515-.207.515-.52v-16.342c.001-6.121-2.772-8.717-10.323-8.717"/><path d="m95.672 32.688c-.134 0-.222.089-.222.223v.148.434 2.748.369.213c0 .134.088.224.222.224h.128 12.592c.36 0 .566-.206.566-.515 0-4.05-.259-5.763-.822-7.525-1.389-4.254-5.086-6.899-10.172-6.899-4.931 0-8.731 2.541-10.12 6.899-.511 1.608-.822 3.58-.822 6.174s.36 4.512.877 6.122c1.386 4.356 5.083 6.95 10.322 6.95 4.57 0 8.066-1.764 10.17-4.254.204-.258.204-.517-.052-.727l-3.028-2.697c-.259-.207-.515-.153-.773.104-1.231 1.35-3.029 2.387-5.803 2.387-2.771 0-4.725-1.348-5.547-3.785-.124-.341-.227-.699-.292-1.088h-.001c-.187-1.056-.297-2.084-.297-3.594.04-1.423.122-2.332.324-3.487.002-.016.005-.03.008-.045.002-.012.004-.021.006-.033v.001c.049-.272.116-.528.199-.783.668-2.023 2.517-3.216 4.882-3.216 2.312 0 4.158 1.193 4.826 3.216.207.626.308 1.245.308 2.129 0 .207-.102.309-.308.309h-6.749l.001-.001z"/><path d="m82.25 12.408h-4.718c-.311 0-.516.207-.516.515v12.121 10.024.08.08 1.331h-.026c-.055 1.43-.21 2.37-.485 3.251-.667 2.07-2.26 3.209-4.617 3.209-2.308 0-3.897-1.139-4.567-3.209-.358-1.141-.51-2.383-.51-4.662 0-2.278.152-3.523.51-4.66.657-2.031 2.195-3.178 4.427-3.223h2.014c.098-.024.162-.101.162-.213l.026-4.736c0-.121-.076-.202-.188-.216l-1.608-.006h-1.89v.001c-4.135.044-7.162 2.06-8.43 6.005-.616 1.919-.872 3.683-.872 7.048 0 3.366.256 5.128.872 7.043 1.282 3.99 4.36 6.01 8.565 6.01 3.336 0 5.388-1.241 6.565-2.953h.05v1.865c0 .312.206.519.516.519h4.718c.308 0 .514-.206.514-.519v-34.19c.002-.309-.204-.515-.512-.515"/><path d="m205.935 32.688c-.132 0-.222.089-.222.223v.148.434 2.748.369.213c0 .134.09.224.222.224h.13 12.593c.359 0 .565-.206.565-.515 0-4.05-.258-5.763-.821-7.525-1.389-4.254-5.087-6.899-10.171-6.899-4.932 0-8.732 2.541-10.121 6.899-.512 1.608-.822 3.58-.822 6.174s.36 4.512.877 6.122c1.385 4.356 5.083 6.95 10.322 6.95 4.57 0 8.066-1.764 10.171-4.254.204-.258.204-.517-.053-.727l-3.028-2.697c-.258-.207-.514-.153-.772.104-1.231 1.35-3.028 2.387-5.804 2.387-2.771 0-4.724-1.348-5.547-3.785-.123-.341-.227-.699-.29-1.088h-.001c-.188-1.056-.298-2.084-.298-3.594.038-1.423.12-2.332.323-3.487.004-.016.006-.03.008-.045.002-.012.004-.021.006-.033v.001c.051-.272.117-.528.2-.783.667-2.023 2.517-3.216 4.882-3.216 2.312 0 4.158 1.193 4.826 3.216.206.626.309 1.245.309 2.129 0 .207-.103.309-.309.309h-6.749v-.001z"/><path d="m192.758 12.408h-4.727c-.309 0-.515.208-.515.516v12.138 10.04.079.081 1.333h-.025c-.056 1.432-.212 2.373-.487 3.255-.668 2.074-2.264 3.216-4.623 3.216-2.31 0-3.902-1.142-4.573-3.216-.357-1.143-.513-2.386-.513-4.669 0-2.281.154-3.529.513-4.667.657-2.034 2.198-3.172 4.434-3.217l2.017.001c.309 0 .515-.207.515-.516v-4.157c0-.31-.206-.517-.515-.517h-.247l-3.049-.001c-.024 0-.048 0-.071 0s-.044 0-.066 0h-.07v.001c-4.14.043-7.172 2.063-8.441 6.014-.617 1.922-.873 3.687-.873 7.057 0 3.371.256 5.137.873 7.055 1.283 3.994 4.367 6.018 8.578 6.018 3.34 0 5.395-1.242 6.575-2.957h.05v1.867c0 .314.206.52.516.52h4.726c.308 0 .515-.205.515-.52v-34.238c-.004-.309-.21-.516-.517-.516"/><path d="m124.091 54.757v4.727c0 .311.206.517.515.517h17.516c.313 0 .52-.207.52-.517v-4.727c0-.307-.207-.514-.52-.514h-17.516c-.309 0-.515.207-.515.514"/><path d="m119.644.167c-.008-.008-.013-.018-.02-.025-.001-.001-.002-.001-.002-.001-.09-.089-.218-.141-.37-.141h-.006-118.065c-.039 0-.076.004-.112.01-.01.002-.019.006-.03.008-.023.006-.048.011-.069.02-.004.001-.007.003-.01.005-.183.075-.295.246-.295.472v.002 58.96.004c0 .18.07.321.188.411.009.009.017.017.029.023v.001c.082.052.182.08.299.08h118.064.006c.174 0 .315-.067.404-.182.07-.086.111-.199.111-.334v-.004-58.959-.002c0-.141-.045-.26-.122-.348m-112.713 54.074c-.037 0-.073-.003-.105-.008-.01-.002-.021-.007-.031-.01-.024-.005-.048-.01-.07-.019-.004-.001-.006-.004-.01-.005-.182-.074-.293-.244-.294-.468v-42.736-4.725c0-.227.112-.396.294-.472.005-.001.008-.004.011-.005.021-.008.089-.025.1-.028.034-.005.07-.008.107-.008h106.564c.038 0 .073.003.107.008.011.003.021.007.03.01.024.005.048.01.07.019.005.001.007.004.011.005.183.075.294.245.294.472v47.461c-.001.225-.113.395-.293.469-.004.001-.006.004-.011.005-.021.008-.046.014-.069.019-.011.003-.02.008-.031.01-.034.006-.067.008-.104.008h-106.57v-.002z"/></g></svg>