<svg xmlns="http://www.w3.org/2000/svg" version="1.1"
    xmlns:xlink="http://www.w3.org/1999/xlink"
    xmlns:svgjs="http://svgjs.com/svgjs" width="47.5" height="47.5">
    <svg viewBox="0 0 47.5 47.5"
        xmlns="http://www.w3.org/2000/svg" id="SvgjsSvg1023" style="enable-background:new 0 0 47.5 47.5;" version="1.1" xml:space="preserve"
        xmlns:cc="http://creativecommons.org/ns#"
        xmlns:dc="http://purl.org/dc/elements/1.1/"
        xmlns:rdf="http://www.w3.org/1999/02/22-rdf-syntax-ns#"
        xmlns:svg="http://www.w3.org/2000/svg">
        <metadata id="SvgjsMetadata1022">
            <rdf:rdf>
                <cc:work rdf:about="">
                    <dc:format>image/svg+xml</dc:format>
                    <dc:type rdf:resource="http://purl.org/dc/dcmitype/StillImage"></dc:type>
                </cc:work>
            </rdf:rdf>
        </metadata>
        <defs id="SvgjsDefs1021">
            <clipPath clipPathUnits="userSpaceOnUse" id="SvgjsClipPath1020">
                <path d="M 0,38 38,38 38,0 0,0 0,38 Z" id="SvgjsPath1019"></path>
            </clipPath>
        </defs>
        <g id="SvgjsG1018" transform="matrix(1.25,0,0,-1.25,0,47.5)">
            <g id="SvgjsG1017">
                <g id="SvgjsG1016" clip-path="url(#clipPath16)">
                    <g id="SvgjsG1015" transform="translate(10.999,25)">
                        <path d="m 0,0 c -0.15,0 -0.303,0.034 -0.446,0.105 -4.381,2.191 -7.484,7.527 -8.502,10.579 -0.175,0.524 0.109,1.09 0.633,1.265 0.525,0.176 1.09,-0.11 1.265,-0.633 C -6.173,8.685 -3.362,3.799 0.448,1.895 0.942,1.647 1.143,1.047 0.896,0.553 0.72,0.202 0.367,0 0,0" id="SvgjsPath1014" style="fill:#77b255;fill-opacity:1;fill-rule:nonzero;stroke:none"></path>
                    </g>
                    <g id="SvgjsG1013" transform="translate(27,8)">
                        <path d="m 0,0 c 0,-3.865 -3.135,-7 -7,-7 -3.865,0 -7,3.135 -7,7 0,3.865 3.135,7 7,7 3.865,0 7,-3.135 7,-7" id="SvgjsPath1012" style="fill:#553788;fill-opacity:1;fill-rule:nonzero;stroke:none"></path>
                    </g>
                    <g id="SvgjsG1011" transform="translate(18,22)">
                        <path d="m 0,0 c 0,-3.865 -3.135,-7 -7,-7 -3.865,0 -7,3.135 -7,7 0,3.865 3.135,7 7,7 3.865,0 7,-3.135 7,-7" id="SvgjsPath1010" style="fill:#9266cc;fill-opacity:1;fill-rule:nonzero;stroke:none"></path>
                    </g>
                    <g id="SvgjsG1009" transform="translate(27,25)">
                        <path d="m 0,0 c 0,-3.865 -3.135,-7 -7,-7 -3.865,0 -7,3.135 -7,7 0,3.865 3.135,7 7,7 3.865,0 7,-3.135 7,-7" id="SvgjsPath1008" style="fill:#aa8dd8;fill-opacity:1;fill-rule:nonzero;stroke:none"></path>
                    </g>
                    <g id="SvgjsG1007" transform="translate(35,19)">
                        <path d="m 0,0 c 0,-3.865 -3.135,-7 -7,-7 -3.865,0 -7,3.135 -7,7 0,3.865 3.135,7 7,7 3.865,0 7,-3.135 7,-7" id="SvgjsPath1006" style="fill:#744eaa;fill-opacity:1;fill-rule:nonzero;stroke:none"></path>
                    </g>
                    <g id="SvgjsG1005" transform="translate(17,11)">
                        <path d="m 0,0 c 0,-3.865 -3.135,-7 -7,-7 -3.865,0 -7,3.135 -7,7 0,3.865 3.135,7 7,7 3.865,0 7,-3.135 7,-7" id="SvgjsPath1004" style="fill:#744eaa;fill-opacity:1;fill-rule:nonzero;stroke:none"></path>
                    </g>
                    <g id="SvgjsG1003" transform="translate(26,16)">
                        <path d="m 0,0 c 0,-3.865 -3.135,-7 -7,-7 -3.865,0 -7,3.135 -7,7 0,3.865 3.135,7 7,7 3.865,0 7,-3.135 7,-7" id="SvgjsPath1002" style="fill:#9266cc;fill-opacity:1;fill-rule:nonzero;stroke:none"></path>
                    </g>
                    <g id="SvgjsG1001" transform="translate(37,8)">
                        <path d="m 0,0 c 0,-3.865 -3.135,-7 -7,-7 -3.865,0 -7,3.135 -7,7 0,3.865 3.135,7 7,7 3.865,0 7,-3.135 7,-7" id="SvgjsPath1000" style="fill:#9266cc;fill-opacity:1;fill-rule:nonzero;stroke:none"></path>
                    </g>
                </g>
            </g>
        </g>
    </svg>
    <style>@media (prefers-color-scheme: light) { :root { filter: none; } }
    </style>
</svg>